<?xml version="1.0" standalone="no"?>
<!DOCTYPE svg PUBLIC "-//W3C//DTD SVG 1.1//EN" "http://www.w3.org/Graphics/SVG/1.1/DTD/svg11.dtd" >
<svg xmlns="http://www.w3.org/2000/svg" xmlns:xlink="http://www.w3.org/1999/xlink" version="1.1">
<metadata>
Created by FontForge 20201107 at Mon May  4 18:12:40 2020
 By Jimmy Wärting
</metadata>
<defs>
<font id="Cyberpunk-Regular" horiz-adv-x="260" >
  <font-face 
    font-family="Cyberpunk"
    font-weight="400"
    font-stretch="normal"
    units-per-em="1000"
    panose-1="2 0 5 3 0 0 0 0 0 0"
    ascent="800"
    descent="-200"
    x-height="205"
    cap-height="529"
    bbox="33 -300 1117 876"
    underline-thickness="50"
    underline-position="-150"
    stemh="33"
    unicode-range="U+000D-00A0"
  />
<missing-glyph horiz-adv-x="364" 
d="M298 0h-265v666h265v-666zM66 633v-600h199v600h-199z" />
    <glyph glyph-name=".notdef" horiz-adv-x="364" 
d="M298 0h-265v666h265v-666zM66 633v-600h199v600h-199z" />
    <glyph glyph-name="null" 
 />
    <glyph glyph-name="null" 
 />
    <glyph glyph-name="nonmarkingreturn" horiz-adv-x="333" 
 />
    <glyph glyph-name="CR" unicode="&#xd;" 
 />
    <glyph glyph-name="space" unicode=" " 
 />
    <glyph glyph-name="A" unicode="A" horiz-adv-x="1032" 
d="M522 233c-2 3 -5 5 -10 5c-4 0 -11 -1 -21 -3c-12 -1 -13 -5 -8 -14c5 -8 14 -12 27 -12c4 0 13 1 26 4c16 5 18 14 2 14c-8 0 -13 2 -16 6zM386 235c0 3 -2 4 -5 4c-7 0 -14 -4 -22 -12c-32 -20 25 -14 27 8zM447 315c0 4 -3 7 -9 8c-7 1 -9 -1 -6 -8s6 -9 11 -7
c3 1 5 3 4 7zM826 361c1 7 2 10 2 11c0 4 -4 6 -11 6h-11c-51 -1 -61 -6 -68 -22l-7 -15c-21 1 -53 2 -96 4c-43 1 -75 3 -96 4l-17 -28c-9 -16 -13 -26 -13 -30c0 -3 33 -6 99 -7c15 0 63 -2 146 -5l49 -2l10 33c7 24 11 41 13 51zM385 408l51 76l107 -5c1 0 40 -1 117 -2
c77 -2 148 -4 215 -6c66 -3 99 -5 99 -6c0 -2 -3 -28 -9 -79s-13 -80 -20 -85c-4 -3 -18 -12 -21 -15c-7 -5 -25 -56 -56 -153s-48 -146 -51 -149c-2 -2 -14 -5 -37 -10c-23 -4 -39 -6 -48 -6l-5 1c-2 2 6 37 24 104c17 67 26 102 26 106h-3c-14 0 -48 -3 -101 -10
c-67 -9 -134 -15 -201 -18l-99 -4l-16 -24c-13 -21 -17 -23 -40 -23c-70 -1 -108 -5 -115 -12c-1 -1 -1 -2 -1 -3c0 -7 25 -13 49 -13c7 0 13 0 16 1c11 2 26 3 47 3h10h5c28 0 40 8 48 35c5 17 26 16 26 5c0 -6 -18 -43 -53 -111c-35 -69 -58 -109 -67 -121
c-3 -5 -23 -13 -58 -26l-51 -19l-32 24c-16 12 -35 28 -57 47l-26 23l44 64c28 41 47 64 58 70c9 4 13 10 13 18c0 7 21 42 62 105s66 97 73 102c3 1 21 3 53 6c37 3 45 5 45 12c0 9 -6 13 -17 13c-3 0 -11 -1 -26 -2c-9 -1 -18 -2 -27 -2c-6 0 -9 1 -9 3c0 1 0 2 1 3
c0 0 34 47 57 83z" />
    <glyph glyph-name="B" unicode="B" horiz-adv-x="888" 
d="M219 100c11 7 -11 7 0 0zM206 100c5 0 5 6 0 6c-4 0 -4 -6 0 -6zM540 155c11 7 -11 7 0 0zM258 164c0 5 -2 8 -5 9c-4 -1 -7 -5 -10 -10c-5 -13 -3 -15 6 -11c6 3 9 7 9 12zM611 175c2 -2 4 -2 7 -1c2 2 1 4 -2 5c-3 -1 -5 -2 -5 -4zM567 160c0 4 -3 8 -9 13
c-8 6 -9 5 -9 -6c0 -16 18 -14 18 -7zM540 173c-2 4 -4 6 -7 6s-1 -3 5 -10c1 -1 1 -2 2 -2c3 0 3 2 0 6zM358 227c36 0 36 12 0 12s-36 -12 0 -12zM542 239c-15 0 -34 1 -57 4l-31 4c-14 -17 -36 -43 -65 -76l-52 3c-24 1 -38 2 -41 2c-15 0 -23 -2 -23 -7c0 -2 1 -5 3 -8
c4 -9 20 -13 49 -14l43 -2l-12 -16c-9 -11 -26 -17 -51 -18c-27 -1 -41 -5 -41 -11c0 -4 9 -6 27 -6c19 0 28 -1 28 -4s-8 -15 -25 -34c-15 -18 -23 -29 -23 -32s28 16 54 34c34 24 58 36 72 36c22 0 17 3 17 15c0 10 9 20 26 31c17 10 33 15 50 15c19 0 29 3 29 9
c0 5 -3 10 -10 14c-2 1 -3 3 -3 4c0 3 9 11 27 24c23 15 34 25 34 29c0 3 -8 4 -25 4zM524 273c7 -5 13 5 7 11c-7 5 -13 -5 -7 -11zM791 818c19 19 31 28 38 28h1c3 -3 -8 -23 -32 -62l-37 -56v-49l-1 -49l-57 -72c-11 -13 -30 -38 -57 -73s-46 -60 -57 -73l-57 -73l55 -3
c27 -2 63 -4 108 -5l51 -1l16 -34l16 -38c0 -3 -9 -12 -27 -25c-9 -7 -60 -45 -155 -114c-47 -35 -90 -66 -128 -94l-254 -186l-78 44c-51 29 -77 48 -78 57c0 9 57 83 171 221c7 8 46 56 111 136c32 39 62 77 91 112c89 111 143 176 162 196c18 19 36 33 55 41
c19 7 31 14 38 21c6 7 18 25 36 56c25 42 48 74 69 95z" />
    <glyph glyph-name="C" unicode="C" horiz-adv-x="1166" 
d="M353 -128l13 1h-66h-65c3 -1 7 -1 12 -1c9 0 40 -1 53 -1s45 1 53 1zM566 -38c5 -2 8 -2 11 1c1 2 1 3 -2 3h-5c-7 0 -9 -1 -4 -4zM973 330c19 0 32 12 39 12c5 0 18 -6 39 -19s36 -24 43 -31l14 -16l-16 -6c-12 -4 -18 -6 -19 -6l-40 -19c-19 -10 -36 -15 -49 -15
c-7 0 -12 0 -17 1c-4 1 -9 1 -16 1c-9 0 -16 -2 -21 -6c-8 -8 -81 -49 -220 -122c-146 -79 -219 -119 -219 -120c0 -3 21 -4 64 -4c62 0 138 2 229 6c90 4 140 8 150 12c8 3 13 4 15 4c6 0 16 -6 31 -18c16 -13 25 -19 28 -19l2 1c4 0 9 1 14 1c10 0 16 -6 18 -17v-6
c0 -9 -7 -22 -21 -39s-26 -26 -36 -26c-3 0 -9 1 -13 1h-14c-56 0 -188 -5 -396 -15c-209 -10 -316 -17 -322 -20c-3 -2 -6 -3 -11 -3c-7 0 -21 3 -41 10c-26 9 -39 15 -39 18c0 4 -3 6 -10 6c-9 0 -24 6 -47 17s-34 19 -34 23c0 8 8 12 23 12c7 0 14 -1 19 -4
c3 -2 7 -3 12 -3c9 0 30 6 61 18l60 23l31 -17c17 -9 29 -13 36 -13c1 0 2 0 2 1c0 3 -7 8 -22 17c-18 11 -27 19 -27 24c0 3 2 6 7 10c4 3 103 51 298 145c197 94 312 151 345 170c37 21 60 31 70 31z" />
    <glyph glyph-name="D" unicode="D" horiz-adv-x="1025" 
d="M368 18c0 2 -3 3 -9 3c-8 0 -18 -15 -18 -23c0 -1 0 -2 1 -3h1c7 0 25 18 25 23zM150 124c-5 4 -14 6 -27 6h-18l17 -9c8 -4 16 -6 24 -6c6 0 9 1 9 3c0 3 -2 5 -5 6zM190 173c11 7 -11 7 0 0zM144 177c7 2 10 4 10 6c0 4 -4 6 -12 6c-7 0 -10 -2 -10 -7s4 -7 12 -5z
M392 223c-64 3 -98 4 -102 4c-19 0 -29 -1 -32 -4c-3 -5 -6 -13 -8 -24c-3 -16 -7 -20 -20 -21h-1l-10 -2c1 0 4 0 9 -1c10 -1 14 -9 11 -22s-4 -21 -4 -23c0 -3 -7 -6 -22 -7c-17 -1 -25 -5 -25 -11c0 -5 5 -8 16 -10c11 -6 16 -11 17 -14c0 -8 -3 -26 -10 -53
c-8 -32 -12 -51 -12 -58c0 -1 0 -1 1 -1c2 0 10 7 25 20c17 17 30 25 41 25c7 0 13 -3 18 -9s11 -9 18 -9c8 0 12 4 12 12c0 9 -5 12 -26 12l-26 1c29 27 51 47 66 61l36 -4c7 -1 14 -1 23 -1c7 0 11 2 11 5c0 9 -7 15 -20 17c-9 1 -17 6 -16 9c1 1 18 18 52 51
c33 32 50 48 50 49c0 3 -24 5 -72 8zM919 733c26 38 41 57 45 57c2 0 3 -2 3 -6c0 -13 -13 -43 -40 -90l-42 -76l15 -25c7 -13 11 -23 11 -31l-1 -1v-2l-74 -87c-49 -59 -74 -89 -74 -90c0 -3 -39 -49 -116 -138c-77 -90 -122 -140 -133 -151c-11 -10 -17 -17 -17 -20
s-18 -25 -53 -65c-37 -42 -79 -79 -128 -112l-76 -51l-88 34c-59 23 -90 36 -93 39c-1 1 -1 3 -1 5c0 14 4 49 13 105s15 87 18 92s4 16 4 31c1 20 3 24 12 24h3c9 -1 13 0 13 4c0 7 -7 9 -21 6c-3 -1 -4 7 -1 24s20 43 51 80l47 55c43 -1 109 -2 196 -3s152 -2 195 -3
l50 61c33 41 53 66 60 77c12 19 35 48 70 87c34 39 58 65 73 77c22 17 48 48 79 93z" />
    <glyph glyph-name="E" unicode="E" horiz-adv-x="1174" 
d="M141 5c3 -1 6 -2 9 -1s4 3 1 4c-1 1 -4 1 -7 0c-7 0 -8 -1 -3 -3zM381 19c0 1 1 1 1 2c0 3 -9 5 -28 5h-23c-51 -1 -84 -3 -97 -5s-23 -6 -29 -13l-11 -13l78 4c45 3 73 5 86 8c13 2 20 6 23 12zM662 21c17 0 14 18 11 18c-1 0 -6 -3 -13 -9c-8 -5 -7 -8 2 -9zM584 30
c0 6 -8 9 -24 8c-32 -2 -34 -6 -87 -6c-39 -1 -60 -3 -65 -8c-4 -5 -3 -9 3 -12c4 -1 11 -2 22 -2c21 0 45 1 74 4c28 2 43 4 44 7s7 4 18 1c10 -2 15 1 15 8zM303 262c-9 -7 -11 -8 -1 -12c4 -1 7 -2 10 -2c34 3 6 32 -9 14zM550 251c3 3 1 7 -4 14c-7 9 -8 9 -21 -6
c-9 -10 -11 -17 -7 -20c3 -1 5 -2 7 -2c11 0 19 5 25 14zM530 284l14 10h-19c-30 0 -11 -15 -31 -8h-6c-12 0 -31 -2 -56 -6s-41 -7 -47 -10c-7 -3 -5 -6 6 -8c2 -1 6 -1 13 -1c18 0 42 3 72 8c29 5 47 10 54 15zM366 384l87 124l131 -4c139 -4 248 -7 328 -8
c133 -3 201 -4 204 -5c1 0 1 -1 1 -3c0 -7 -7 -22 -22 -46l-28 -45h-288c-6 -8 -14 -20 -25 -36h-200c-13 -28 -24 -49 -31 -62l206 5c76 1 125 2 146 2c41 0 61 -1 61 -2c0 -3 -10 -21 -29 -52c-24 -40 -31 -48 -46 -51c-11 -2 -85 -12 -224 -29l-205 -26l-28 -54
c-14 -28 -26 -56 -24 -56c9 0 149 22 421 66c40 7 66 10 78 10c7 0 12 -1 15 -4c1 -1 2 -3 2 -5c0 -7 -9 -29 -28 -64l-32 -63l-315 -68c-177 -39 -288 -63 -334 -72h-6c-11 0 -28 10 -51 29c-59 49 -72 61 -72 73c0 6 27 47 81 125c54 77 83 116 88 119l21 3
c28 4 60 10 60 13v2c-1 3 -1 3 3 3c5 0 8 -2 10 -6c3 -4 32 -6 87 -6c41 0 61 2 61 5c0 13 -21 18 -101 22c-14 1 -31 1 -50 1c-24 0 -37 -2 -38 -5c-2 -5 -6 -4 -13 3c-5 5 -7 8 -7 11s3 9 8 16c3 5 36 52 98 140z" />
    <glyph glyph-name="F" unicode="F" horiz-adv-x="1097" 
d="M349 306c15 3 25 5 30 5c3 0 4 -1 4 -4c0 -5 -21 -50 -63 -135l-63 -130l-39 -26c-45 -30 -86 -78 -121 -144c-13 -26 -24 -39 -31 -39c-8 0 -10 4 -6 11c5 7 41 84 108 230l103 219l27 4c19 3 36 6 51 9zM962 659c3 7 16 11 40 11h37l-5 -23l-9 -51l-6 -27l-211 -10
c-149 -8 -232 -13 -250 -14l-41 -4l-25 -54c-15 -31 -23 -50 -23 -57h6c12 0 56 2 131 6s117 6 128 6h5c1 -1 -6 -13 -23 -35c-14 -19 -21 -31 -21 -36c0 -1 1 -4 4 -8c6 -7 4 -14 -5 -21c-6 -5 -19 -8 -39 -9c-21 -1 -70 -3 -149 -5c-113 -3 -179 -5 -198 -8
c-15 -2 -22 0 -22 5s-6 14 -17 25l-16 17l24 1c6 0 22 0 48 -1s45 -2 57 -2c25 0 38 2 38 5s-30 6 -89 8s-89 4 -89 6c0 3 14 15 33 21c23 9 43 14 59 14c3 0 13 -1 18 -1l40 -2l-29 6c-16 2 -29 9 -27 11c11 22 29 56 55 101l52 98l139 4c187 5 297 9 329 11s49 6 51 12z
" />
    <glyph glyph-name="G" unicode="G" horiz-adv-x="966" 
d="M563 100c11 7 -11 7 0 0zM492 120c5 -3 8 -2 11 1c2 2 1 3 -2 3h-5c-7 0 -9 -1 -4 -4zM165 417c3 2 -1 3 -11 3c-9 0 -13 0 -13 -1s1 -1 3 -2c7 -1 14 -1 21 0zM565 556c4 11 10 17 14 16l42 -14c28 -9 55 -19 82 -28c26 -10 39 -16 39 -19c0 -4 -6 -16 -19 -37
s-21 -33 -26 -36c-7 -3 -78 -5 -215 -5h-208l-12 -13c-4 -5 -8 -11 -11 -18c0 -3 -8 -18 -25 -44l-25 -39l87 -144c60 -101 91 -152 93 -155s4 -5 7 -5c6 0 24 12 53 35c32 26 48 40 48 43c0 1 -14 3 -41 6l-36 4v73l56 5c23 1 36 2 40 2c17 0 37 -4 60 -11
c30 -9 78 -14 144 -17c98 -4 200 -21 196 -31c0 -4 -16 -6 -47 -6h-52c-9 -16 -19 -30 -28 -43l-60 3c-42 3 -69 5 -82 7c-1 0 -6 1 -9 1c-7 0 -14 -4 -21 -11c-8 -7 -24 -25 -49 -54c-39 -44 -62 -67 -68 -69h-5c-5 0 -26 1 -34 1c-9 0 -15 -1 -17 -4s0 -5 5 -6
c4 -1 9 -1 15 -1c17 0 25 -1 25 -4c0 -5 -15 -24 -44 -55s-46 -47 -51 -47c-7 0 -63 82 -169 246c-107 163 -160 248 -160 253s7 19 22 44c15 24 24 36 27 36c4 0 6 3 6 9c0 7 7 23 22 50s25 41 31 44s61 6 165 9c105 3 169 5 192 7c36 4 38 5 43 22z" />
    <glyph glyph-name="H" unicode="H" horiz-adv-x="708" 
d="M265 296c5 -3 9 -3 12 0c1 2 0 3 -3 3h-5c-5 0 -7 -1 -6 -2c0 0 1 0 2 -1zM247 335c1 5 -6 7 -25 7c-23 0 -27 -1 -24 -9c2 -5 9 -8 22 -8c16 0 25 3 27 10zM276 409c-7 3 -13 5 -20 5c-5 0 -9 -2 -11 -5c-1 -3 1 -4 6 -5c4 -1 9 -1 14 0c11 0 17 1 17 2s-2 2 -6 3z
M621 765c9 19 16 29 19 29c1 0 3 -1 6 -4c2 -2 3 -6 3 -12c0 -19 -15 -91 -45 -218l-53 -220l19 -19c12 -12 18 -20 18 -24c0 -7 -4 -18 -11 -34s-13 -24 -16 -24c-9 -1 -17 -10 -24 -29s-21 -67 -40 -143c-27 -105 -42 -160 -45 -166h-1c-5 0 -15 6 -32 17
c-21 13 -33 26 -37 41c-8 28 -8 41 0 57c3 5 12 45 29 120s25 116 25 123c0 3 -29 5 -86 5h-88l-37 -135c-25 -90 -39 -136 -41 -137c-3 -1 -15 -7 -36 -18c-14 -7 -23 -14 -27 -20c-5 -6 -11 -19 -18 -39c-13 -36 -36 -76 -44 -76l-1 1c-1 1 14 76 45 226s47 225 48 225
s2 4 3 12c4 33 8 53 13 59s19 10 42 13c9 1 10 2 -7 3h-1h-1h-1h-1c-18 1 -27 4 -27 9c0 12 6 14 34 15c41 1 41 13 1 13c-19 0 -28 2 -28 7c0 3 0 5 1 7c18 64 28 123 30 177c1 23 4 48 9 75s9 43 13 46c1 1 18 5 51 12c33 6 52 9 58 9c7 0 11 -9 11 -26
c0 -28 -12 -98 -35 -210l-36 -173c13 0 46 1 99 3l97 3l43 170c21 83 35 133 41 150c5 17 13 30 24 39c15 12 22 19 22 22c0 2 5 15 15 39z" />
    <glyph glyph-name="I" unicode="I" horiz-adv-x="879" 
d="M410 -137c-5 -3 -38 -4 -38 -13c-6 -8 33 1 38 2c13 0 8 11 0 11zM211 -58c-7 6 -17 9 -30 9c-9 0 -15 -2 -17 -6c-3 -7 3 -9 24 -9c16 1 24 3 23 6zM475 522c5 5 12 7 22 7c2 0 9 -1 21 -2c35 -3 57 -6 67 -9c9 -3 17 -9 22 -16c4 -7 10 -11 17 -12s28 -2 62 -2h32h103
c-20 -29 -49 -72 -88 -129l-61 5c-30 2 -67 5 -67 5c-3 0 -15 -52 -37 -157s-38 -184 -47 -239l-3 -20c16 1 40 2 71 4s55 3 70 4l-4 -30c-1 -11 -2 -17 -2 -19c0 -13 4 -14 39 -21c25 -4 21 -11 13 -35l-6 -23h-203c-133 0 -199 3 -199 8v4c-1 0 -4 -1 -10 -3
c-14 -3 -39 -6 -74 -7c-24 -1 -37 -2 -39 -2c-18 0 -21 4 -23 14c-3 12 -4 19 -4 20c0 15 12 17 83 18c51 0 79 2 86 5c11 5 5 -5 18 -10c6 -3 11 -3 14 -1c4 3 5 7 2 13c-1 5 -9 7 -24 7h-14h-26h-73l-65 1l2 36v36l22 3c20 3 35 4 45 4c23 0 44 -3 62 -9
c19 -6 47 -9 82 -9c49 0 52 1 55 14c5 21 17 91 36 208c18 117 27 181 27 192c0 7 -41 15 -123 25c-13 1 -27 14 -42 39l-24 36l-100 2c-65 1 -104 5 -117 10c-9 4 -17 9 -15 11c1 1 70 4 205 8s205 9 212 16z" />
    <glyph glyph-name="J" unicode="J" horiz-adv-x="884" 
d="M441 -83l3 -3c5 -3 8 -2 11 1c1 2 0 3 -3 3h-5c-3 0 -5 0 -6 -1zM557 215c11 7 -11 7 0 0zM179 471l10 14c7 9 18 14 35 15c24 0 130 -3 318 -10s282 -10 283 -11c1 0 0 -15 -1 -30c-4 -25 -6 -28 -22 -28c-12 0 -20 -4 -24 -13c-4 -7 -13 -11 -28 -11c-13 0 -24 0 -33 1
s-19 1 -30 1c-17 0 -26 -4 -27 -11c-1 -4 -6 -30 -9 -41c-5 -22 -12 -39 -21 -52c-11 -17 -19 -45 -24 -83c-4 -25 -18 -77 -41 -158c-24 -82 -39 -128 -46 -139c-3 -4 -4 -8 -4 -12c-4 -27 -8 -43 -11 -46c-2 -1 -46 -4 -133 -9s-136 -8 -149 -8l-30 -1l-35 103
c-17 49 -27 79 -32 90c-5 10 -11 16 -18 17c-7 2 -17 8 -30 18c-13 9 -20 16 -20 20c0 3 20 5 59 5c27 0 44 -1 51 -3c10 -4 23 -25 38 -64l24 -58l55 -1c39 -1 65 -3 76 -6s18 -10 21 -22c3 -13 10 -20 20 -20h14l-12 16c-8 10 -12 18 -12 23c0 7 7 10 22 11l23 2
c14 78 30 160 48 245h17c21 0 20 9 3 21l-13 9c3 18 8 45 15 82c7 36 12 63 15 82h-98c-54 0 -91 2 -112 7s-38 15 -53 31c-9 11 -24 17 -47 20z" />
    <glyph glyph-name="K" unicode="K" horiz-adv-x="1155" 
d="M91 175c5 -3 9 -3 12 0c1 2 0 3 -3 3h-5c-5 0 -7 -1 -6 -2c0 0 1 0 2 -1zM355 229c-3 1 -7 2 -11 3c-7 0 -11 -1 -10 -2c0 0 1 0 3 -1c7 -1 13 -1 18 0zM310 233c-11 0 -1 -9 4 -4c0 2 -1 3 -4 4zM268 227c29 4 36 5 -19 6c-36 0 -54 -2 -54 -6c0 -3 6 -5 19 -5
c16 0 34 2 54 5zM602 469c201 101 303 152 306 152s11 -11 -26 -39c-19 -14 -34 -30 -45 -49c-7 -11 -16 -21 -27 -28s-32 -19 -64 -36c-49 -24 -80 -42 -93 -53c-9 -9 -56 -36 -141 -82c-82 -43 -123 -66 -123 -67s24 -17 73 -46s73 -46 73 -51s-5 -8 -14 -11
c-11 -3 -10 -5 -5 -12s14 -12 25 -17c16 -7 24 -24 24 -49c0 -3 -1 -12 -1 -16c-1 -17 0 -21 8 -21c5 0 77 -36 214 -110c137 -73 211 -109 222 -109h1l1 1h3c10 0 23 -4 39 -11c28 -12 35 -17 40 -36c4 -14 6 -25 6 -32c0 -6 -1 -9 -4 -9h-1c-16 8 -97 51 -242 130
c-146 79 -286 155 -419 227c-134 72 -202 108 -203 107s-21 -35 -60 -100c-39 -66 -60 -99 -63 -99c-1 0 -10 5 -25 16c-16 11 -24 17 -24 18c0 0 7 21 14 39c9 20 13 33 13 39c0 3 -2 11 -7 24l-10 26l80 150c54 99 85 149 94 149c2 0 3 -2 3 -7c0 -3 8 -5 23 -5
c11 0 21 0 28 1c9 1 19 1 30 1c16 0 24 -3 24 -9s-9 -28 -28 -65c-9 -20 -13 -28 -19 -41s-8 -19 -7 -19c7 0 110 50 307 149z" />
    <glyph glyph-name="L" unicode="L" horiz-adv-x="1104" 
d="M606 -88c21 0 31 1 31 3c0 3 -30 8 -49 8c-11 0 -17 -1 -17 -4c0 -5 12 -7 35 -7zM162 -76c-4 6 -11 6 -21 0c1 -3 3 -5 8 -6c11 0 14 2 13 6zM281 482l-12 42c-12 41 -12 43 0 43c8 0 12 -6 12 -19c0 -16 1 -16 16 -15c14 3 34 6 61 8c15 2 26 3 33 3c9 0 15 -2 19 -7
c2 -2 3 -5 3 -8c0 -13 -54 -165 -163 -456c-24 -64 -35 -97 -34 -98s68 -5 201 -11c101 -5 165 -10 190 -14s37 -12 37 -23c0 -6 9 -13 27 -22c17 -7 25 -13 25 -17s55 -6 165 -6c82 0 131 -1 148 -2s27 -4 32 -10l7 -9c0 -2 -7 -3 -20 -4c-7 0 -53 -2 -132 -3
c-39 -1 -77 -1 -112 -2l-222 -5l-33 15c-16 7 -37 12 -62 15s-89 7 -190 12l-219 13c-1 1 8 29 27 82l28 80l21 -4c7 -1 11 -2 12 -2c9 0 14 5 27 32c13 28 34 99 63 213z" />
    <glyph glyph-name="M" unicode="M" horiz-adv-x="1074" 
d="M387 258c-6 10 -26 3 -26 -10c0 -6 7 -9 22 -9c9 0 16 1 22 4c8 3 11 6 10 11c-1 3 -5 4 -12 2c-8 -3 -13 -2 -16 2zM725 300c5 0 5 3 -2 10c-1 1 -1 2 -2 2c-4 0 -5 -12 4 -12zM730 324c-11 0 -1 -9 4 -4c0 2 -1 3 -4 4zM411 452c65 129 99 193 100 193l14 -6
c11 -5 10 -8 2 -24c-6 -12 -7 -19 -4 -20c2 -2 18 -4 47 -7l43 -4l20 -146c13 -95 21 -147 25 -156c3 -6 8 -2 15 13l2 6c24 54 54 118 91 192c36 74 57 115 63 123c7 11 12 16 14 13c1 -1 2 -3 3 -7c5 -13 11 -14 51 -21c28 -5 45 -8 50 -11s8 -9 8 -18c0 -15 5 -21 29 -36
l33 -21c0 -25 -10 -93 -29 -206c-20 -123 -30 -193 -30 -210c0 -10 1 -18 3 -25c3 -12 4 -20 4 -23c0 -10 -8 -34 -23 -73l-26 -66l-21 1l-22 2l-14 73c-7 33 -10 62 -10 86v5c8 47 16 135 23 263c3 44 5 73 7 87c3 15 2 23 -2 23c-3 0 -13 -19 -32 -58s-36 -77 -51 -113
c-6 -15 -11 -23 -14 -23c-2 0 -4 -4 -5 -12s-17 -48 -50 -120s-52 -109 -55 -110h-1c-7 0 -24 12 -53 35s-44 38 -46 45c-3 9 -4 18 -4 27c0 13 3 19 8 19c3 0 6 -3 10 -10c2 -4 5 -6 8 -6c5 0 9 6 12 18c1 7 4 8 11 4c5 -3 6 -8 1 -14c-8 -8 -6 -10 8 -10c13 0 15 3 15 19
c0 12 -3 18 -9 18c-1 0 -6 -1 -14 -2h-10c-11 0 -19 1 -23 3c-7 3 -10 1 -11 -6c0 -3 0 -4 -1 -4c-2 0 -5 9 -9 26s-6 30 -7 41v25l103 -3c20 -1 42 -1 67 -1c23 0 34 2 34 5c0 9 -22 10 -103 13c-68 3 -103 5 -104 6c-3 3 -8 32 -15 87c-8 57 -12 85 -13 85
c-3 0 -32 -57 -89 -171c-82 -164 -128 -256 -138 -277l-42 -12c-27 -8 -44 -14 -50 -17c-4 -2 -21 -42 -50 -121c-29 -78 -45 -118 -48 -121c-2 -2 -4 -3 -6 -3c-11 0 -26 25 -34 58l-10 41l15 26c13 24 20 30 37 31l22 3l50 115c25 57 51 112 78 166s43 82 48 84
c3 1 5 5 5 12c0 6 33 73 99 202z" />
    <glyph glyph-name="N" unicode="N" horiz-adv-x="955" 
d="M166 33l64 2c26 0 54 1 59 1c7 0 11 -1 12 -1c7 -1 18 -2 35 -2h26c-39 -60 -80 -126 -123 -197l-66 -13c-62 -12 -96 -18 -103 -18c-9 0 -13 5 -13 15c0 12 10 36 31 73c17 31 28 49 33 54s13 8 24 8c40 0 60 4 60 12c0 4 -12 6 -37 6h-36c8 13 27 47 34 60zM665 102
c-3 8 -18 11 -25 6c-6 -8 0 -14 14 -14c7 0 12 3 11 8zM649 233l93 164l75 -4c53 -3 80 -5 80 -8c0 -6 -52 -102 -155 -288c-9 -16 -21 -38 -37 -67c-65 -117 -105 -184 -120 -202c-16 -15 -33 -23 -52 -24h-23h-5l-44 -1l-20 31c-8 13 -14 27 -18 40s-9 38 -15 74
c-5 36 -12 83 -12 83c0 1 30 3 89 6c43 2 69 4 78 6c9 1 18 6 26 13c11 9 16 19 16 28c0 5 -1 7 -2 7c-1 1 -7 -4 -18 -14c-13 -13 -21 -19 -25 -19c-2 0 -3 2 -3 6c0 2 31 58 92 169zM376 414c13 21 21 31 25 31c2 0 3 -2 3 -6c0 -1 -1 -5 -2 -13c-3 -11 -4 -20 -4 -27
c0 -11 4 -11 25 -14l26 -3l46 -160c28 -97 42 -150 42 -161c0 -3 -47 -4 -141 -4c-92 0 -141 -2 -146 -6c-4 -4 -8 -4 -11 1c-3 4 -13 6 -31 6c-16 0 -24 1 -24 4c0 1 1 3 2 6c9 22 73 137 190 346z" />
    <glyph glyph-name="O" unicode="O" horiz-adv-x="799" 
d="M581 -15c11 7 -11 7 0 0zM138 68l3 -3c5 -3 8 -2 11 1c1 2 0 3 -3 3h-5c-3 0 -5 0 -6 -1zM130 112c-17 16 -54 -4 -11 -6c9 0 14 1 15 2c0 1 -1 3 -4 4zM205 142c7 0 9 4 5 12c-2 5 -5 7 -8 7c-4 0 -6 -3 -6 -9c0 -7 3 -10 9 -10zM584 168c-21 65 -51 106 -92 122h-2
c-11 0 -43 -13 -96 -40s-91 -48 -113 -65c-22 -16 -36 -24 -41 -24s-7 -2 -4 -6v-1l1 -2c0 -8 -7 -23 -20 -44c-14 -21 -24 -32 -30 -33h-1l-6 -2c1 0 3 0 6 -1c7 -2 10 -7 7 -16c-1 -4 -9 -27 -12 -38l-8 -25c22 -17 54 -42 97 -77l35 4c65 8 125 22 178 42
c75 29 113 74 113 137c0 21 -4 44 -12 69zM542 403c101 3 156 5 163 5c17 0 25 -1 25 -4c0 -11 -14 -18 -41 -22c-16 -2 -29 -9 -38 -20c-13 -17 -13 -16 -1 -28c24 -27 48 -86 71 -178c14 -54 21 -85 21 -93c0 -7 -9 -23 -28 -49s-39 -50 -59 -71
c-45 -47 -92 -81 -143 -102s-116 -33 -197 -36l-85 -3l-61 53c-55 48 -88 78 -97 89c-10 12 -15 26 -15 43c0 56 14 113 42 171c49 103 144 177 285 224c22 7 42 12 60 15c17 2 50 4 98 6z" />
    <glyph glyph-name="P" unicode="P" horiz-adv-x="1041" 
d="M301 233c11 7 -11 7 0 0zM368 258c11 7 -11 7 0 0zM413 330c16 0 16 12 0 12s-16 -12 0 -12zM362 336c11 7 -11 7 0 0zM782 468c0 1 -3 1 -9 1c-16 0 -68 -4 -155 -11c-85 -7 -127 -12 -128 -13c-4 -6 -11 -21 -21 -44s-14 -36 -13 -37c4 0 59 17 166 50s160 51 160 54z
M904 558c0 6 13 9 40 9h40l-4 -20c-1 -5 -5 -43 -9 -66c-2 -11 -4 -19 -6 -23c-1 -3 -98 -37 -290 -100s-290 -97 -295 -102c-6 -6 -9 -13 -9 -20c0 -11 -18 -12 -18 -29c0 -8 -17 -48 -50 -121l-50 -107c-14 -8 -35 -20 -62 -37c-28 -17 -49 -29 -62 -37l-20 -50
c-14 -34 -26 -53 -35 -58c-4 -3 -10 -5 -14 -5h-2c0 3 35 78 104 225l106 223l-27 25c-16 14 -24 24 -24 29c0 6 70 5 73 8s9 4 18 4c23 0 22 12 1 13l-20 3l17 8c11 6 16 12 16 17c0 3 14 32 41 86s43 84 48 90c1 1 68 5 202 12s230 11 287 13c3 0 4 3 4 10z" />
    <glyph glyph-name="Q" unicode="Q" horiz-adv-x="779" 
d="M361 476c-58 4 -100 6 -127 6c-17 0 -25 -1 -25 -2c0 -2 36 -16 109 -43c72 -27 110 -40 113 -40s8 11 15 34s10 35 8 37c-1 1 -32 3 -93 8zM59 521l4 46h45c44 0 45 0 45 -15v-16h230c153 0 230 -1 230 -4c1 -3 -9 -37 -31 -100l-32 -95c13 -13 45 -46 57 -59l-34 -24
c-23 -15 -38 -32 -43 -49s-14 -28 -27 -34c-9 -4 -13 -7 -14 -8c2 -1 5 -2 8 -2c9 -1 13 -4 13 -9c0 -3 -8 -31 -25 -83c-17 -53 -28 -85 -33 -96l-3 -11c-4 -15 -10 -34 -10 -41c0 -2 0 -3 1 -3c2 0 35 21 100 64s99 70 103 82c4 10 14 17 30 20c15 3 27 5 34 8
c17 5 22 -15 -15 -50c-19 -18 -35 -29 -48 -32c-16 -4 -34 -13 -55 -26c-28 -19 -37 -30 -53 -62l-20 -40l-83 -27c-56 -19 -87 -28 -92 -28c-11 0 -16 5 -16 14c0 15 19 79 58 193c30 90 49 145 57 165c7 19 14 29 19 29h2c9 -1 17 1 26 8c13 7 14 9 -3 16l-18 6
c-1 0 -18 9 -50 26c-7 4 -42 22 -105 55c-63 32 -122 62 -175 91c-53 28 -80 43 -80 46c0 10 1 25 3 45z" />
    <glyph glyph-name="R" unicode="R" horiz-adv-x="1033" 
d="M655 49c3 2 4 4 4 6c0 5 -5 8 -15 8c-5 0 -9 -2 -10 -5c-5 -8 14 -12 21 -9zM603 76c7 0 11 2 12 7c1 2 0 3 -2 4c-1 1 -3 1 -6 1c-17 0 -16 -12 -4 -12zM560 76c7 0 12 2 13 7c1 2 0 3 -3 4c-1 1 -3 1 -6 1c-16 0 -15 -12 -4 -12zM736 87l37 5h-43c-26 0 -51 -1 -75 -4
l-34 -4l23 -5c7 -1 13 -2 19 -2c7 0 14 1 21 2c15 3 33 6 52 8zM173 124c11 7 -11 7 0 0zM566 211c5 -5 15 4 4 4c-5 0 -7 -1 -4 -4zM487 211c5 -5 13 4 4 4c-5 0 -7 -1 -4 -4zM558 212c0 5 -17 8 -25 3c-3 -3 0 -5 8 -6c11 0 17 1 17 3zM461 219c0 1 -3 2 -10 2
c-6 0 -8 -2 -5 -6c4 -5 15 -3 15 4zM679 335l39 11l-177 1h-178l-15 -31c-9 -21 -14 -34 -14 -41c0 -8 7 -15 21 -21c8 -3 15 -5 21 -5c12 0 50 9 114 27c78 21 122 34 131 39c6 3 25 9 58 20zM273 408c13 29 20 37 31 37c4 0 38 -2 102 -6c48 -4 99 -6 152 -6
c40 -1 112 -4 216 -9c103 -6 156 -10 158 -12c1 -1 10 -14 26 -40c12 -19 18 -32 18 -39c0 -3 -1 -5 -2 -6c-6 -6 -59 -25 -159 -57c-95 -31 -150 -50 -163 -58c-7 -4 -23 -10 -46 -18c-25 -7 -38 -12 -38 -15s15 -11 46 -24c30 -13 49 -19 56 -19c3 0 42 -14 119 -43
c76 -29 114 -44 114 -47c0 -5 -18 -24 -53 -58c-36 -33 -57 -50 -62 -50c-2 0 -25 8 -39 10c-74 19 -111 30 -111 34c0 2 17 5 51 9c67 8 81 11 81 22c0 8 -25 6 -38 5c-11 -1 -64 -5 -74 -5c-29 -1 -44 -3 -44 -5c0 -1 0 -3 1 -4c3 -6 1 -9 -4 -10c-4 1 -7 2 -10 5
c-5 6 -11 8 -19 6h-2c-11 0 -45 11 -101 34c-56 22 -102 42 -137 61l-55 29l-74 -148c-50 -98 -77 -147 -81 -147s-14 10 -31 29c-17 20 -30 37 -38 50c-3 5 -5 10 -5 13c0 8 13 41 40 100c30 65 48 98 55 98c20 0 4 11 4 15c0 10 16 49 47 116c29 67 52 118 69 153z" />
    <glyph glyph-name="S" unicode="S" horiz-adv-x="719" 
d="M476 470c41 16 62 24 64 24c3 0 9 -10 16 -31s11 -36 11 -47v-8c0 -17 9 -49 28 -98s32 -75 39 -76c8 -1 15 -4 20 -8c5 -5 7 -12 7 -23c0 -10 -2 -18 -6 -24c-2 -3 -5 -4 -8 -4c-12 0 -28 17 -32 33c-7 27 -38 60 -65 71c-13 5 -20 9 -19 12l3 3c5 3 5 7 -2 10
c-6 3 -15 15 -26 36c-12 21 -18 36 -18 43c0 1 0 2 1 3l1 3c0 1 -1 2 -3 2c-7 0 -30 -10 -69 -30c-41 -21 -63 -31 -66 -31c-8 0 -22 -24 -55 -24c-16 0 -24 -4 -24 -11c0 -6 -11 -15 -34 -28c-19 -9 -29 -16 -29 -21c0 -1 50 -22 151 -64l145 -58l57 3c20 1 32 2 35 2
c13 0 20 -1 20 -4c0 -6 2 -33 7 -81c3 -37 4 -57 4 -60c0 -14 -2 -26 -6 -36l-8 -21c-48 -6 -120 -15 -217 -28s-170 -22 -218 -28l-28 16c-23 13 -30 23 -43 55c-9 24 -21 43 -35 57c-11 11 -17 21 -17 28c0 4 0 7 1 9c3 12 4 15 21 15c11 0 34 -2 71 -6
c44 -4 66 -9 66 -15c0 -3 -6 -7 -18 -14c-11 -5 -15 -11 -12 -18s5 -16 7 -26c2 -12 -2 -20 -12 -23l-14 -5l19 -12c9 -6 18 -9 27 -9s33 3 73 9c55 7 85 13 90 16c7 5 23 8 47 10c18 2 30 4 35 7s12 12 21 25c11 19 17 31 17 37c0 7 -6 16 -17 27c-12 11 -26 17 -41 17h-5
c-71 0 -164 24 -279 73c-25 11 -39 18 -40 22c-1 1 -1 3 -1 4c0 3 0 6 1 9c2 12 1 18 -4 18c-7 0 -9 4 -6 11c3 5 6 8 11 10c7 2 11 5 11 9c0 5 -6 12 -19 23c-13 10 -20 16 -20 18c0 5 18 19 53 42c35 22 72 43 112 63c57 29 131 61 224 97z" />
    <glyph glyph-name="T" unicode="T" horiz-adv-x="1038" 
d="M383 294c15 0 16 12 -4 12c-8 0 -12 -1 -12 -4c0 -5 5 -8 16 -8zM400 421c-11 0 -1 -9 4 -4c0 2 -1 3 -4 4zM326 417c5 -3 8 -2 11 1c2 2 1 3 -2 3h-5c-7 0 -9 -3 -4 -4zM312 415c5 0 5 6 0 6c-4 0 -4 -6 0 -6zM245 417c-1 1 -3 2 -8 3c-5 -1 -8 -2 -8 -3
c5 -1 11 -1 16 0zM509 424c0 9 -3 10 -16 5c-12 -5 -9 -14 4 -14c8 0 12 3 12 9zM197 464c12 0 12 12 0 12s-12 -12 0 -12zM58 512c3 9 12 13 25 13c9 0 14 -3 14 -9c0 -5 9 -8 26 -11s70 -8 158 -15l121 -10l23 13c14 8 26 12 35 12c2 0 8 -1 19 -2c19 -3 28 -7 28 -12
c0 -3 0 -5 -1 -7c-3 -13 -2 -14 13 -14c17 0 67 -4 152 -12c87 -7 140 -16 159 -25c16 -8 45 -15 86 -21c40 -5 61 -8 64 -11c2 -2 0 -6 -6 -13c-3 -5 -9 -7 -20 -7c-16 0 -59 5 -129 15l-141 20l-42 -19c-25 -11 -46 -17 -61 -17c-3 0 -18 1 -43 2c-28 2 -69 4 -67 4
c-4 0 -28 -49 -72 -148c-22 -50 -39 -89 -52 -117c-13 -29 -27 -59 -41 -90s-29 -64 -45 -99c-32 -69 -40 -83 -49 -83h-3c-15 4 -20 11 -20 32c0 9 2 29 5 61c4 39 7 62 10 70c2 7 7 12 15 13c7 1 13 9 20 22c6 13 20 50 43 109c32 83 51 129 57 136c3 3 4 7 4 14
c0 4 4 19 13 45c9 25 13 40 13 43c0 2 -22 5 -66 9c-70 7 -117 12 -141 17c-25 5 -44 12 -59 23c-31 22 -46 43 -46 63c0 3 0 5 1 6z" />
    <glyph glyph-name="U" unicode="U" horiz-adv-x="821" 
d="M159 37c-3 1 -7 2 -11 3c-7 0 -11 -1 -10 -2c0 0 1 0 3 -1c7 -1 13 -1 18 0zM385 43c-1 1 -3 2 -8 3c-7 -1 -9 -2 -7 -3c5 -1 10 -1 15 0zM529 102c24 0 24 12 0 12s-24 -12 0 -12zM471 102c17 0 25 2 25 7c0 3 -7 5 -21 5c-33 0 -32 -12 -4 -12zM215 108c11 7 -11 7 0 0
zM182 109c0 3 -6 5 -17 5c-7 0 -11 -1 -11 -2c0 -5 7 -7 20 -7c5 0 8 1 8 4zM653 439c59 96 91 144 94 144c1 0 5 -2 12 -5c5 -3 3 -10 -4 -20c-20 -26 -30 -53 -30 -81v-8c0 -11 -1 -20 -4 -28c-1 -1 -1 -4 -1 -7c0 -11 3 -24 9 -40l12 -35l-78 -140
c-53 -94 -79 -143 -79 -147c-73 -154 -115 -231 -125 -231c-3 0 -19 7 -48 21c-30 15 -49 24 -57 29c-2 1 -3 3 -3 7c0 5 4 19 12 40c9 24 14 44 12 46c-3 0 -37 -22 -101 -66c-64 -43 -97 -66 -99 -68c-6 -4 -11 -6 -14 -6c-6 0 -23 9 -50 27c-35 23 -53 35 -53 36
c0 11 11 40 33 89c22 50 44 101 67 154c7 17 16 24 53 41c29 14 50 21 63 21c17 0 18 -2 18 -31c0 -20 -4 -37 -11 -50c-11 -23 -18 -45 -34 -81c-11 -24 -21 -50 -19 -50l178 103c4 0 18 9 41 26s41 36 53 59c15 27 29 50 41 69c6 9 43 70 112 182z" />
    <glyph glyph-name="V" unicode="V" horiz-adv-x="945" 
d="M227 34c3 3 1 6 -5 9c-7 3 -10 2 -10 -5c0 -11 10 -13 15 -4zM204 53c3 0 5 1 5 4c0 4 -5 13 -9 17l-3 4c-3 -1 -3 -25 7 -25zM324 98c-13 6 -23 6 -29 0c-3 -3 -4 -5 -4 -7c0 -5 7 -7 21 -7s21 2 21 6c0 3 -3 5 -9 8zM175 151c8 0 16 5 16 8s-4 4 -12 4
c-21 0 -20 -12 -4 -12zM797 821c0 8 10 19 30 34c19 14 34 21 43 21h17l-22 -45c-15 -30 -28 -47 -39 -50c-11 -4 -49 -45 -115 -122c-65 -77 -106 -127 -121 -150c-16 -24 -27 -53 -34 -86c-5 -25 -11 -45 -19 -61c-8 -17 -28 -50 -59 -100c-21 -35 -50 -81 -76 -124
c-13 -22 -22 -36 -25 -41c-22 -38 -36 -60 -43 -67s-11 -14 -14 -22c-3 -7 -18 -34 -47 -82c-29 -47 -47 -74 -52 -79s-12 -5 -22 -1c-7 3 -13 9 -16 19c-4 11 -10 37 -19 80c-10 47 -19 92 -27 137s-20 102 -35 171c-9 44 -16 71 -19 80c-4 9 -10 13 -17 13c-6 0 -9 1 -9 3
c0 3 8 12 25 29c21 21 35 39 41 52c6 11 12 17 18 17c3 0 6 0 9 -1c10 -2 17 -5 21 -9c2 -2 11 -45 28 -128s25 -129 25 -138c0 -5 -4 -8 -13 -9h-1l-9 -2c1 -1 5 -2 11 -3c10 -3 17 -13 21 -31l7 -26l15 20c12 18 21 27 28 27c3 0 5 0 7 -1l6 -1c0 1 -2 3 -6 6
c-1 1 -2 3 -2 6c0 10 38 71 115 182c58 84 95 136 111 156c15 19 31 34 48 45c15 9 31 22 48 41s46 54 87 105c67 83 100 128 100 135z" />
    <glyph glyph-name="W" unicode="W" horiz-adv-x="1019" 
d="M327 73c2 -2 4 -2 7 -1c2 3 1 5 -3 6c-4 0 -7 -4 -4 -5zM333 86c5 -5 13 4 4 4c-5 0 -7 -1 -4 -4zM678 139c0 4 -8 6 -24 6s-24 -2 -24 -7c0 -6 21 0 25 -6c5 -9 23 -4 23 7zM436 245c8 6 9 10 4 12c-3 1 -7 0 -13 -1c-7 -2 -11 -7 -11 -14c0 -11 5 -17 16 -19
c16 -4 21 4 4 10c-10 3 -11 4 0 12zM885 558c21 57 34 86 37 86c13 0 24 -18 33 -54c9 -32 11 -40 -4 -65c-12 -23 -18 -27 -35 -28c-10 -1 -17 -5 -22 -12c-5 -8 -18 -36 -39 -84c-53 -121 -95 -208 -127 -262c-2 -3 -26 -50 -71 -141c-48 -96 -80 -158 -95 -185
s-26 -41 -32 -41c-2 0 -3 0 -4 1c-8 4 -10 11 -5 21c5 11 6 17 4 19c-1 1 -14 3 -41 6c-25 3 -40 9 -43 17c-27 185 -42 278 -43 278s-15 -26 -40 -78c-25 -53 -51 -106 -77 -161c-27 -54 -42 -83 -47 -87c-10 -10 -12 -8 -14 2c-2 8 -19 15 -50 20c-44 7 -46 7 -50 26
c-2 11 -13 23 -34 36c-19 12 -29 19 -29 22c0 2 11 68 33 199c19 110 28 174 28 193c0 6 -1 13 -4 21s-5 14 -5 17c0 7 7 29 21 66c21 56 28 66 44 66c5 0 8 0 11 -1c7 -1 11 -4 13 -8c1 -5 5 -26 12 -65c5 -29 8 -54 8 -77c0 -15 -2 -35 -5 -62s-6 -50 -7 -68
c-3 -37 -5 -58 -6 -61c-4 -7 -6 -53 -6 -138c0 -17 0 -26 1 -26c2 0 11 17 26 50c39 85 61 132 64 142c1 5 18 42 50 111c31 69 48 104 50 106h1c7 0 24 -10 49 -30c21 -16 34 -27 39 -33c5 -7 9 -16 10 -28c1 -3 1 -8 1 -13c0 -12 -2 -18 -5 -18c-2 0 -4 3 -6 8
c-3 7 -8 10 -15 9c-3 -1 -5 -3 -6 -6c0 -13 13 -30 24 -30c12 0 16 -7 21 -51l3 -22l-97 4c-43 1 -65 2 -68 2c-19 0 -29 -3 -29 -8c0 -9 7 -10 62 -11c83 -1 126 -3 130 -7c3 -3 8 -30 14 -79s11 -73 16 -73c7 0 58 98 151 294l57 119c17 3 72 18 89 22l14 31
c3 7 18 46 45 119z" />
    <glyph glyph-name="X" unicode="X" horiz-adv-x="761" 
d="M372 139c12 0 12 12 0 12s-12 -12 0 -12zM398 148c8 -6 27 -1 22 6c-8 7 -34 1 -22 -6zM197 483c23 9 37 13 44 13c8 0 24 -5 48 -15l39 -17l10 -36c7 -25 26 -57 57 -96s49 -58 53 -58c3 0 25 27 67 80c42 52 64 86 67 103c3 21 10 32 21 32c9 0 26 -6 51 -18l49 -24
l-44 -48c-27 -30 -60 -72 -98 -126l-54 -78l37 -46c25 -30 48 -52 67 -67l31 -21l7 -61c3 -31 5 -52 5 -63c0 -3 -1 -5 -4 -5c-8 0 -22 4 -41 13c-20 9 -35 17 -44 25c-9 9 -27 29 -54 61c-36 45 -57 68 -63 68c-5 0 -19 -27 -41 -80l-33 -80l-41 -11
c-80 -22 -144 -55 -193 -98c-30 -27 -48 -44 -53 -52c-5 -7 -13 -11 -23 -11c-4 0 -6 1 -6 4c0 5 34 51 101 136s102 128 107 128c3 0 5 2 5 7c0 3 11 18 33 46c21 27 39 49 53 65c7 7 13 16 18 25c3 5 4 9 4 13c0 5 -5 13 -15 23c-12 12 -19 22 -22 30c-3 7 -5 10 -8 10
s-33 34 -88 102c-56 68 -84 104 -84 108c0 3 12 10 35 19z" />
    <glyph glyph-name="Y" unicode="Y" horiz-adv-x="867" 
d="M573 364c11 7 -11 7 0 0zM420 452l40 23c25 14 40 21 45 21h1c5 -2 8 -15 8 -39c0 -16 -2 -37 -5 -64c-2 -15 -3 -27 -3 -36c0 -17 4 -31 12 -41c1 -1 8 2 21 7c19 8 18 9 9 18c-6 7 -12 11 -17 11c-1 0 -2 0 -2 1c0 4 26 27 79 68l60 47h141l-12 -14
c-12 -14 -93 -110 -242 -289c-153 -184 -233 -276 -240 -276c-8 0 -30 -10 -66 -29c-26 -13 -45 -25 -56 -35s-30 -30 -56 -60c-37 -43 -59 -65 -67 -65s-12 2 -12 5c0 1 39 50 118 146c78 96 157 193 236 290l120 146c1 1 0 2 -1 2c-3 0 -9 -3 -18 -10
c-10 -6 -18 -9 -23 -9c-10 0 -26 12 -47 35c-20 22 -30 44 -30 65c0 9 1 22 3 38z" />
    <glyph glyph-name="Z" unicode="Z" horiz-adv-x="960" 
d="M332 -87l5 -2c5 -2 9 -1 12 3c0 3 -3 4 -8 5c-7 0 -12 -1 -13 -3c0 -1 1 -2 4 -3zM403 -42c-1 1 -3 2 -8 3c-7 -1 -10 -2 -8 -3c5 -1 11 -1 16 0zM473 189c4 1 3 2 -3 3c-3 1 -6 1 -11 0l-15 -2c1 -1 2 -1 4 -1c9 -1 17 -1 25 0zM76 523c-13 7 -20 13 -20 17
c0 3 5 5 15 5c13 0 37 -3 74 -10c25 -4 158 -6 397 -6c157 -1 257 -1 299 -2c41 -1 62 -4 62 -7c0 -7 -17 -10 -50 -10c-32 0 -62 -4 -90 -13l-46 -13l-107 -146c-73 -97 -112 -145 -117 -145c-3 0 -5 -3 -5 -8c0 -7 -19 -37 -57 -88c-31 -43 -62 -85 -58 -85
c8 0 76 14 203 41l201 45l20 -16c17 -12 32 -20 44 -23c12 -4 22 -11 21 -15c-1 -5 -13 -9 -34 -12c-27 -5 -33 -9 -44 -28l-12 -21l-310 -72c-188 -43 -291 -65 -310 -65c-7 0 -13 1 -16 4c-10 5 -15 11 -15 17c0 5 9 17 26 36l25 29l69 6c61 5 91 10 91 15c0 1 -5 2 -16 2
h-7c-11 0 -22 -1 -33 -4c-8 -1 -18 -2 -30 -2c-11 0 -19 0 -24 1l-36 3l69 85c59 73 95 117 108 130c12 13 23 19 34 20l14 2c-1 0 -5 1 -12 3c-5 1 -8 3 -8 6c0 6 26 41 77 104c57 70 87 110 91 121c4 9 16 13 35 14h1h1h1l15 2l-7 1c-1 0 -8 1 -12 1c-19 0 -53 -2 -101 -7
c-65 -6 -114 -10 -148 -11l-55 -2c-7 32 -14 58 -19 79l-86 4c-57 3 -93 9 -108 18z" />
    <glyph glyph-name="a" unicode="a" horiz-adv-x="713" 
d="M369 114c0 7 -12 11 -23 8c-9 -3 -11 -7 -5 -11c3 -2 7 -3 12 -3c11 0 16 2 16 6zM271 124c0 3 -12 4 -12 -4c0 -5 3 -5 9 0c2 1 3 3 3 4zM543 149l7 32l6 32c0 1 -2 2 -7 2c-16 0 -45 -8 -48 -13c-3 -6 -26 -9 -68 -9h-64l-9 -18l-10 -18h33c17 0 49 -1 96 -4zM269 234
l36 51l125 -3c87 -3 146 -5 176 -7l50 -4l-3 -17c-3 -15 -6 -32 -8 -49c-3 -23 -8 -38 -17 -45s-25 -43 -46 -108l-31 -96l-28 -4c-19 -3 -29 -3 -29 0s4 24 13 64c8 39 12 60 12 65c0 1 -3 2 -8 2c-13 0 -33 -2 -62 -5c-45 -5 -87 -9 -127 -11c-57 -3 -63 -4 -70 -17
s-12 -15 -44 -15c-25 0 -40 -2 -45 -5c-3 -2 -4 -4 -4 -5c0 -4 10 -6 30 -6c11 0 21 0 28 1c29 3 44 9 45 16c3 7 8 11 15 12c3 -1 5 -3 6 -5c0 -2 -13 -28 -40 -78l-40 -74l-34 -13c-17 -6 -28 -9 -33 -9c-4 0 -7 1 -10 3c-2 2 -26 20 -39 31l-29 24l31 45
c21 30 34 45 40 45c3 0 5 3 5 8c0 7 14 31 41 72l44 63l30 3c19 3 30 6 33 11c1 3 -1 5 -8 5l-14 -1c-17 -3 -25 -3 -25 0c0 4 11 23 34 56z" />
    <glyph glyph-name="b" unicode="b" horiz-adv-x="621" 
d="M381 104c0 3 -12 4 -35 4c-32 0 -36 -2 -53 -22c-16 -20 -18 -21 -57 -22c-23 0 -35 -1 -35 -4c0 -5 7 -7 21 -7c13 0 23 -1 28 -3c3 -1 5 -3 5 -6c0 -9 -18 -21 -38 -22h-2l-12 -2c1 0 4 0 9 -1c11 -1 17 -3 17 -6c0 -1 -6 -10 -17 -25l-17 -23l31 22c21 15 37 24 47 26
c11 3 16 7 16 12c0 12 28 28 49 28c13 0 19 3 19 9c0 2 -3 3 -8 3c-4 1 0 7 12 18c13 12 20 19 20 21zM267 104c-1 1 -3 2 -8 3c-7 -1 -9 -2 -7 -3c5 -1 10 -1 15 0zM529 478c16 17 27 26 32 26c2 0 3 -1 3 -4c0 -1 -8 -14 -25 -39c-16 -23 -24 -45 -24 -68
c0 -16 -3 -29 -9 -39c-7 -11 -28 -39 -64 -86c-49 -62 -73 -94 -73 -95c0 -3 22 -4 67 -4h67l12 -26l14 -25l-15 -10c-4 -3 -24 -17 -60 -44c-18 -13 -34 -25 -48 -35c-163 -120 -245 -180 -247 -180c-5 0 -23 10 -54 29c-31 20 -47 32 -47 35c0 6 60 82 180 229
c76 93 126 154 151 182s42 44 52 48c16 7 31 22 44 45c12 21 27 41 44 61z" />
    <glyph glyph-name="c" unicode="c" horiz-adv-x="790" 
d="M636 128c20 6 33 10 38 11c6 0 17 -6 33 -17c16 -12 24 -20 24 -24c0 -5 -12 -11 -37 -19s-41 -12 -48 -12h-3h-1c-12 0 -63 -24 -152 -72c-97 -52 -146 -79 -146 -81c0 -3 19 -4 58 -4c43 0 89 1 138 3c49 3 76 5 81 8c4 1 7 2 8 2c5 0 14 -4 26 -12
c14 -11 24 -16 30 -16c5 0 7 -3 7 -8c0 -9 -5 -18 -15 -28c-7 -7 -18 -11 -32 -13c-21 -3 -109 -7 -264 -12c-129 -5 -198 -9 -205 -12c-10 -4 -18 -5 -24 -2c-24 8 -53 20 -86 37c-5 3 -8 6 -8 8c0 6 8 9 24 9c17 0 35 4 54 12c13 5 24 8 31 8c6 0 14 -2 24 -7
c11 -5 17 -7 16 -6c0 1 -2 2 -5 5c-9 6 -14 9 -17 9s-5 3 -5 8c0 3 69 39 207 107c137 68 220 107 249 118z" />
    <glyph glyph-name="d" unicode="d" horiz-adv-x="700" 
d="M323 81l-36 3c-17 2 -40 4 -67 5h-15c-17 0 -18 -2 -27 -37c-1 -2 -2 -8 -3 -17c-1 -8 -6 -12 -16 -12s-15 -2 -15 -6c0 -8 24 -5 24 -8c0 -2 -3 -14 -9 -35c-5 -20 -8 -33 -8 -38c0 -3 1 -5 3 -5c3 0 13 8 30 25c29 29 53 44 72 44h3c13 -1 19 0 19 5c0 4 -4 6 -12 6
c-7 0 -11 1 -11 4c0 5 11 17 33 36zM614 418c13 20 22 30 27 30c1 0 1 -1 1 -3c0 -9 -8 -27 -23 -55c-15 -25 -22 -41 -22 -48c0 -4 2 -9 6 -16l10 -17l-114 -134c-45 -53 -102 -119 -169 -200c-37 -44 -72 -77 -105 -100l-50 -34l-57 22c-32 14 -60 21 -60 29
c0 20 4 54 12 101l16 101c17 21 36 44 59 69h252l67 83c41 52 73 88 95 108c16 14 34 35 55 64z" />
    <glyph glyph-name="e" unicode="e" horiz-adv-x="810" 
d="M361 -24c5 -3 8 -2 11 1c2 2 1 3 -2 3h-5c-7 0 -9 -1 -4 -4zM317 -32c36 0 36 12 0 12c-37 0 -37 -12 0 -12zM262 -25c-3 4 -9 5 -20 4c-51 -3 -78 -7 -83 -12c-1 -1 -2 -2 -2 -3c0 -2 9 -3 27 -3h26c35 2 53 6 53 12c0 1 -1 1 -1 2zM368 120c12 0 6 24 -2 5
c-1 -3 -1 -5 2 -5zM222 120c9 0 9 12 0 12c-8 0 -8 -12 0 -12zM353 139c11 7 -11 7 0 0zM335 139c7 3 7 4 0 4h-9c-13 0 -25 -1 -37 -4c-9 -3 -10 -4 -4 -5h14c16 0 28 2 36 5zM561 -56c-2 0 -73 -15 -214 -46s-212 -46 -213 -46c-3 0 -16 11 -40 32s-36 33 -36 36
c0 4 18 32 55 85l56 79h25c4 0 23 1 34 1c9 0 35 -1 46 -1h24c17 0 25 1 25 4c0 1 -1 3 -3 5c-5 5 -20 8 -43 8h-25h-18c-31 0 -46 1 -46 3c0 5 21 37 62 95l66 93l125 -4c101 -3 173 -5 218 -7l93 -4c-13 -17 -26 -37 -39 -59h-92c-42 0 -68 -1 -79 -2s-19 -5 -24 -10
c-11 -11 -19 -13 -74 -13h-63l-9 -18l-10 -18h132h46c64 0 80 -2 80 -11c0 -2 -5 -12 -16 -30c-8 -13 -19 -21 -32 -24c-14 -3 -69 -11 -164 -23c-60 -7 -94 -14 -103 -19c-5 -3 -11 -12 -19 -27c-10 -18 -15 -29 -15 -34c0 -1 2 -2 5 -2c9 0 69 9 180 27
c82 13 127 20 134 20c9 0 10 -3 10 -8s-6 -20 -17 -45c-12 -25 -19 -37 -22 -37z" />
    <glyph glyph-name="f" unicode="f" horiz-adv-x="747" 
d="M192 156c1 1 12 4 32 7s32 5 36 5c1 0 1 -1 1 -2c0 -7 -7 -24 -20 -53c-24 -52 -40 -85 -49 -99c-9 -15 -21 -28 -36 -39c-24 -19 -53 -55 -86 -108c-5 -6 -9 -8 -12 -6c0 8 12 37 35 87c32 67 55 115 69 145c17 39 27 60 30 63zM264 207c5 1 5 1 -2 2l-12 1
c-11 0 -16 -1 -17 -2c0 -1 1 -1 4 -1c9 -1 18 -1 27 0zM639 394c1 5 10 7 26 7h25l-4 -29c-3 -20 -5 -31 -8 -34c-1 -1 -27 -3 -79 -6l-156 -9c-53 -3 -80 -5 -81 -5c-9 -2 -17 -14 -26 -36c-9 -23 -13 -35 -12 -36h1c1 0 25 1 72 3s76 3 88 3h7c2 -1 -2 -9 -11 -22
c-8 -11 -11 -20 -10 -27c3 -5 1 -10 -4 -14c-7 -5 -51 -8 -134 -11l-126 -4l-11 15l-12 14l19 3c4 1 10 2 11 2l2 1c0 1 -6 1 -19 2c-35 0 -34 10 -1 20c16 5 30 7 42 7c10 -1 15 0 14 1c0 1 -2 2 -6 3c-5 2 -8 4 -8 7s9 22 28 57c20 38 33 60 38 65c4 4 60 8 168 11
c111 4 166 8 167 12z" />
    <glyph glyph-name="g" unicode="g" horiz-adv-x="664" 
d="M387 308c4 5 8 8 11 8c5 0 22 -5 49 -14c35 -12 54 -19 55 -20s-2 -10 -11 -27l-12 -25h-279l-22 -36c-15 -23 -22 -37 -22 -40c0 -2 20 -36 59 -101l58 -97l27 19c23 17 35 27 35 31c0 3 -5 5 -15 5c-23 0 -35 7 -35 20c0 2 1 6 2 13l4 22l47 -2c70 -5 132 -11 187 -18
s82 -13 82 -18c0 -3 -10 -5 -29 -5c-20 0 -34 -4 -42 -13c-7 -7 -17 -11 -30 -11c-12 0 -22 0 -31 1l-50 3l-48 -53c-46 -49 -71 -76 -75 -81c-17 -19 -27 -29 -30 -29s-30 39 -80 116c-16 25 -37 57 -62 96s-40 61 -43 66l-30 46l15 27c9 18 15 27 17 27c3 0 6 7 11 20
s11 24 19 34c5 7 14 12 26 14c11 1 48 3 109 5c57 2 92 4 107 6c14 2 23 6 26 11z" />
    <glyph glyph-name="h" unicode="h" horiz-adv-x="501" 
d="M179 148c0 2 -5 3 -16 3c-8 -1 -12 -3 -12 -6c4 -5 28 -2 28 3zM419 421c5 13 12 20 19 20c3 0 5 -3 5 -8c0 -8 -11 -57 -33 -147l-32 -136l12 -13c6 -6 9 -13 9 -21c0 -11 -6 -22 -19 -32c-8 -7 -20 -42 -37 -107c-14 -53 -27 -103 -27 -105c-1 -2 -3 -3 -6 -3
c-12 0 -34 15 -41 28c-3 5 -4 10 -4 14c0 9 7 44 20 105c11 49 16 76 16 81c0 3 -18 5 -55 5h-54l-11 -35c-21 -78 -33 -122 -36 -131c-3 -7 -12 -15 -26 -23c-17 -8 -27 -21 -32 -39c-5 -20 -21 -46 -28 -46c-1 0 -2 1 -2 4c0 7 12 64 35 173c23 108 35 163 37 164
c3 3 4 7 4 12c0 7 7 11 21 13l22 4l-20 1c-13 2 -19 1 -19 14c0 6 3 21 8 44c6 24 9 46 9 67c1 24 4 42 8 55c7 21 11 25 32 29c11 1 23 4 38 8c2 1 4 1 6 1c5 0 8 -9 8 -28c0 -22 -7 -65 -21 -129c-15 -67 -22 -102 -22 -105c0 -2 15 -3 44 -3h18l62 2l28 108
c18 70 32 110 41 121c10 11 18 24 23 38z" />
    <glyph glyph-name="i" unicode="i" horiz-adv-x="610" 
d="M243 -136c6 0 6 3 0 10c-3 4 -6 5 -6 -3c0 -5 2 -7 6 -7zM325 286c3 3 11 4 24 4c32 0 53 -4 63 -13c9 -7 35 -11 76 -12l65 -2c-19 -25 -38 -52 -57 -83c-15 1 -69 7 -86 8l-23 -121c-12 -66 -21 -111 -27 -135l-3 -15c16 2 77 6 94 8l-4 -21c-1 -7 -2 -11 -2 -12
c0 -5 6 -9 17 -12c12 -3 18 -9 18 -19s-1 -16 -4 -17c-3 -2 -63 -4 -180 -7l-175 -4v37c15 0 68 4 82 4l-44 1l-44 2l2 23c1 24 1 24 30 28c4 1 10 1 18 1c14 0 25 -1 33 -4s24 -4 47 -4c25 0 40 2 43 5c2 2 10 44 23 127s20 129 20 138c0 1 -15 5 -46 10
c-41 7 -46 9 -59 30l-15 23l-57 -4c-9 -1 -20 -1 -33 -1c-19 0 -34 2 -44 6l-20 8l40 5c36 3 80 6 131 8c61 3 94 6 97 10z" />
    <glyph glyph-name="j" unicode="j" horiz-adv-x="614" 
d="M142 263c1 2 24 3 68 3c61 0 133 -1 216 -4s125 -5 128 -8c2 -2 3 -5 3 -10c0 -12 -9 -26 -17 -26c-7 0 -12 -3 -15 -10c-2 -5 -9 -8 -20 -8c-7 0 -14 0 -19 1l-35 2l-6 -25c-4 -19 -26 -57 -30 -88c-2 -15 -11 -49 -26 -104c-16 -55 -26 -86 -31 -94
c-3 -5 -5 -11 -6 -18c-1 -8 -5 -14 -11 -19c-4 -3 -25 -6 -63 -9c-39 -3 -73 -4 -103 -4c-20 0 -31 1 -32 2c-3 5 -11 27 -24 66c-13 41 -25 65 -38 73c-15 10 -23 18 -23 25c0 1 1 2 4 2c2 0 4 0 5 -1c8 -3 21 -4 39 -4h29l16 -38c11 -25 19 -39 24 -40c1 0 10 -1 27 -3
c17 -1 31 -3 44 -6c13 -2 19 -5 19 -8c0 -7 2 -11 7 -13c3 -1 4 -1 4 1c0 1 -1 4 -2 8c-3 9 0 13 9 13c8 0 13 2 16 6c2 3 8 30 18 81c10 50 19 78 26 83s7 7 2 7c-4 0 -6 2 -6 7c0 3 3 19 8 48c2 9 4 21 5 36l2 22l-71 3c-33 1 -54 3 -63 5c-10 2 -20 7 -31 15
c-15 11 -28 16 -38 16c-13 0 -17 6 -9 15z" />
    <glyph glyph-name="k" unicode="k" horiz-adv-x="786" 
d="M187 100c11 7 -11 7 0 0zM412 259c129 63 195 95 198 95h1c1 0 2 0 2 -1c0 -4 -11 -17 -34 -40c-25 -25 -53 -45 -84 -61c-33 -16 -51 -26 -54 -30c-2 -3 -30 -20 -85 -49c-54 -29 -81 -44 -81 -46c0 -1 14 -10 42 -27c33 -19 49 -32 49 -37c0 -1 -2 -3 -5 -4
c-13 -4 -10 -10 8 -18c13 -5 15 -12 15 -32c0 -16 2 -24 6 -24c3 0 48 -23 137 -70c87 -47 134 -70 140 -70c8 0 19 -3 34 -9c14 -6 22 -15 25 -27c1 -7 2 -14 2 -18v-3c-4 0 -97 49 -278 147s-273 147 -276 147c-5 0 -20 -21 -45 -64l-37 -63c-16 11 -28 19 -35 24l10 25
c4 11 6 19 6 26c0 5 -1 10 -3 15c-1 4 -2 7 -2 10c0 11 15 45 46 100l50 92l38 1h11c21 0 32 -3 32 -8c0 -9 -4 -21 -13 -36c-9 -16 -19 -36 -16 -36c8 0 73 30 196 91z" />
    <glyph glyph-name="l" unicode="l" horiz-adv-x="749" 
d="M406 -141c-1 1 -3 2 -8 3c-7 -1 -9 -2 -7 -3c5 -1 10 -1 15 0zM186 272c0 5 12 7 12 -6c0 -5 4 -7 13 -7c2 0 12 1 29 2c7 1 15 1 24 1c15 0 23 -3 23 -10c0 -1 -1 -6 -4 -14c-12 -29 -35 -90 -68 -185c-34 -95 -51 -145 -51 -150c0 -4 30 -8 90 -11
c71 -3 118 -7 141 -10c22 -3 34 -7 36 -12s11 -13 27 -23c11 -6 24 -10 37 -12c13 -1 43 -2 90 -2c71 0 107 -2 107 -5s-26 -6 -78 -9c-53 -3 -107 -4 -162 -4c-53 0 -85 3 -96 9c-10 6 -61 11 -153 16c-87 3 -135 6 -142 8c-1 1 -2 3 -2 5c0 16 30 102 30 100
c0 2 7 1 14 -1c1 -1 3 -1 6 -1c6 0 13 9 21 27c11 24 24 70 41 137c15 61 23 99 23 114c0 4 -1 9 -2 16c-4 16 -6 25 -6 27z" />
    <glyph glyph-name="m" unicode="m" horiz-adv-x="728" 
d="M398 -21c3 0 4 12 -5 12c-5 0 -5 -3 1 -9c1 -2 3 -3 4 -3zM424 -13c0 13 -12 12 -12 5c0 -5 2 -8 7 -10c3 1 4 2 5 5zM308 247c19 41 31 61 38 61h1c6 -3 8 -9 6 -18c0 -1 -1 -5 -1 -6c0 -5 8 -8 23 -8c16 0 26 -4 30 -11c1 -1 3 -16 8 -46c5 -31 10 -61 15 -91
s7 -45 8 -45c5 0 22 31 51 94c39 82 62 123 69 123c1 0 2 -1 2 -4c0 -5 8 -8 23 -11c39 -7 41 -8 48 -24c5 -11 14 -19 26 -25c11 -5 16 -11 16 -16c0 -2 -1 -6 -2 -13c-8 -43 -16 -89 -24 -137c-10 -57 -15 -97 -15 -119c0 -6 0 -10 1 -11c1 -3 2 -6 2 -9
c0 -9 -4 -24 -12 -47c-15 -39 -20 -45 -33 -45c-15 0 -16 3 -23 51c-3 18 -4 36 -4 54c0 13 1 29 3 46c7 61 10 115 10 160c0 17 -1 26 -2 26h-1c-5 -5 -25 -47 -60 -126s-52 -121 -52 -128c0 -9 -3 -14 -9 -14c-7 0 -18 6 -33 17c-17 13 -27 23 -30 28c-3 6 -5 21 -8 45
c-2 21 -7 49 -7 51c0 3 12 4 36 4h27h20c23 0 34 1 34 3c0 1 0 1 -1 1c-14 5 -16 1 -24 1c-7 0 -36 3 -48 3l-51 4l-9 56l-8 55l-14 -31c-30 -64 -59 -124 -88 -180c-29 -55 -44 -83 -47 -83c-4 0 -14 -2 -30 -6c-11 -3 -18 -8 -23 -16c-5 -7 -14 -30 -28 -69
c-19 -51 -33 -77 -41 -77c-5 0 -10 9 -15 28c-3 13 -5 22 -5 26c0 5 2 13 6 22c6 13 13 19 21 19c7 0 14 4 19 11s14 27 27 59c27 61 86 183 178 368z" />
    <glyph glyph-name="n" unicode="n" horiz-adv-x="656" 
d="M441 27c11 7 -11 7 0 0zM436 108l60 107h50c35 0 52 -1 52 -4c0 -5 -32 -65 -96 -182c-64 -118 -99 -180 -106 -188c-5 -5 -20 -8 -43 -8c-17 0 -28 1 -32 3c-4 3 -10 10 -18 23c-11 19 -17 38 -19 56c-1 11 -4 28 -8 50l-3 20h39c52 0 82 7 90 20s7 14 -6 2
c-9 -9 -15 -11 -16 -8c0 7 19 44 56 109zM243 193c22 39 34 59 35 59c2 0 2 -7 1 -20c0 -3 -1 -8 -1 -9c0 -9 3 -10 16 -13c10 -1 16 -5 19 -12c35 -122 53 -186 53 -191c0 -8 -12 -10 -82 -10c-55 0 -83 -2 -85 -6c-1 -2 1 -4 6 -5s11 -1 18 -1c18 0 27 -1 27 -4
s-13 -25 -38 -65l-38 -61l-33 -7c-32 -7 -54 -11 -67 -11c-11 0 -16 3 -16 9c0 11 6 27 17 46c17 32 23 39 42 44h1l2 1l12 4c-1 0 -4 0 -10 1h-17l10 22c9 20 11 21 43 21c21 0 32 2 32 7c0 3 -1 4 -4 3c-3 -2 -12 -2 -28 1l-22 4l37 67c7 13 20 35 37 66s28 51 33 60z" />
    <glyph glyph-name="o" unicode="o" horiz-adv-x="555" 
d="M368 124c-15 16 -25 24 -31 24c-7 -1 -28 -10 -65 -29s-61 -33 -74 -43c-9 -7 -20 -22 -33 -45s-22 -43 -25 -59c-1 -1 -1 -3 -1 -6c0 -8 9 -19 28 -33s33 -21 44 -21c3 0 11 1 24 2c95 9 163 47 171 95c1 3 1 8 1 15c0 33 -16 75 -39 100zM361 221c65 3 101 5 109 5
c15 0 23 -2 23 -5c0 -5 -7 -10 -21 -13c-18 -5 -27 -12 -27 -20c0 -5 4 -17 13 -36c10 -20 19 -46 28 -78c9 -33 13 -56 13 -71c0 -3 -1 -6 -1 -7c-3 -11 -14 -28 -35 -52s-40 -43 -58 -56c-42 -31 -98 -48 -169 -53l-62 -3l-58 50c-48 41 -59 53 -59 77c0 11 3 27 9 47
c18 69 55 121 110 157c57 37 105 53 185 58z" />
    <glyph glyph-name="p" unicode="p" horiz-adv-x="713" 
d="M220 78c2 -2 4 -2 7 -1c2 2 1 4 -2 5c-3 -1 -5 -2 -5 -4zM515 177c0 1 -5 1 -18 0s-51 -4 -84 -7l-74 -6l-13 -23c-8 -15 -11 -24 -9 -27c4 0 38 10 102 30c64 19 96 30 96 33zM594 234c5 3 17 5 36 5h26l-4 -25c0 -2 -2 -14 -7 -36c4 -6 -158 -64 -359 -126
c-9 -3 -16 -10 -23 -20c-8 -10 -11 -9 -16 -30c-1 -5 -13 -31 -34 -78c-15 -31 -26 -51 -32 -59c-6 -7 -18 -16 -37 -27c-35 -20 -40 -25 -52 -56c-9 -23 -24 -40 -31 -40c-2 0 -3 1 -3 2c0 3 22 51 67 144l68 142l-18 17c-12 12 -17 19 -16 20c2 2 49 5 49 13c0 5 1 8 4 8
c4 0 17 21 40 63l33 63l38 4c23 2 73 4 150 7c75 3 115 6 121 9z" />
    <glyph glyph-name="q" unicode="q" horiz-adv-x="541" 
d="M312 183l-32 4c-18 2 -43 3 -75 3c-47 -1 -39 -1 -24 -8s37 -15 67 -25c29 -10 47 -15 52 -15h1c2 2 4 9 7 22zM151 137l-91 47c0 13 -4 48 -4 61h31c21 0 32 -3 34 -9c1 -4 11 -6 29 -7c17 -1 57 -2 119 -2c97 0 145 -1 145 -4c0 -6 -6 -27 -19 -64l-20 -58l17 -18
c21 -21 23 -22 -4 -38c-15 -9 -23 -18 -25 -29c-2 -13 -8 -20 -17 -22c-8 -3 -10 -5 -6 -6c1 -1 2 -1 3 -1c3 -1 5 -4 5 -7c0 -7 -6 -29 -19 -67c-16 -48 -24 -73 -24 -75c0 -1 1 -1 2 -1c7 0 30 13 68 38c37 26 57 42 59 49c1 8 26 18 42 18c5 0 8 -1 10 -3c1 0 1 0 1 -1
c0 -5 -8 -15 -24 -29c-17 -14 -29 -22 -37 -23c-19 -4 -54 -35 -67 -62c-8 -16 -19 -23 -58 -36c-30 -10 -51 -15 -64 -15c-7 0 -11 2 -11 5c0 1 6 21 21 68c7 23 14 44 20 62c27 83 44 125 51 125s11 2 11 6c0 5 -59 37 -178 98z" />
    <glyph glyph-name="r" unicode="r" horiz-adv-x="712" 
d="M437 58c8 0 7 12 4 12s-5 -2 -7 -7c0 -3 1 -4 3 -5zM452 246c-10 3 -44 5 -103 5h-30c-35 0 -57 -2 -65 -6s-12 -14 -13 -31v-6c0 -12 3 -13 16 -16h2c15 0 52 8 109 24c57 15 85 25 85 29c0 1 0 1 -1 1zM195 293l12 27l44 -4c183 -15 300 -22 351 -22c11 0 22 -9 35 -28
c12 -18 18 -28 18 -30l-133 -46c-89 -29 -133 -45 -133 -48c0 -2 35 -17 106 -44l107 -42l-72 -72l-45 13c-35 11 -53 18 -53 22c0 1 4 2 11 2c44 3 66 6 66 10c0 1 -14 2 -42 2c-31 0 -48 -2 -52 -6c-5 -5 -9 -5 -11 0c-2 4 -7 6 -15 6c-7 0 -25 6 -56 18s-60 24 -86 37
c-23 12 -36 18 -41 18c-1 0 -10 -15 -26 -46c-17 -31 -33 -63 -50 -94l-24 -47h-1c-3 0 -12 8 -26 25s-21 29 -21 35c0 11 9 35 26 73c48 101 85 181 111 241z" />
    <glyph glyph-name="s" unicode="s" horiz-adv-x="502" 
d="M288 216c46 19 72 29 77 29c8 0 24 -31 24 -47c0 -3 -1 -6 -1 -9c0 -13 6 -34 18 -63s21 -45 28 -47c8 -2 12 -11 12 -26c0 -29 -30 -6 -30 11c0 11 -27 39 -43 44c-8 3 -17 16 -27 37c-8 18 -18 35 -20 33c-72 -36 -109 -54 -111 -54c-3 0 -13 -5 -29 -16
s-24 -18 -25 -21c0 -1 31 -15 92 -41c39 -16 66 -26 82 -30c15 -5 31 -7 47 -7h38l4 -48c1 -20 2 -33 2 -38c0 -27 -6 -41 -19 -44c-47 -7 -94 -13 -141 -19c-67 -9 -106 -13 -119 -13c-10 0 -20 3 -29 8c-13 7 -23 20 -30 38c-5 17 -12 28 -20 34c-7 5 -10 12 -10 21
s1 12 12 12c1 0 9 -1 25 -2c21 -2 38 -3 51 -3c10 0 15 -3 15 -8c0 -4 -4 -7 -12 -9c-13 -3 -14 -10 -5 -19c5 -5 6 -11 1 -18c-3 -5 -5 -9 -5 -12c0 -7 7 -10 22 -10c11 0 27 2 48 6c26 4 75 13 80 13c23 3 53 30 53 47c0 12 -28 28 -51 28c-35 0 -82 11 -141 34
c-25 9 -41 16 -47 20s-10 11 -12 20c-2 13 -1 20 4 23s3 9 -8 17l-15 13l18 15c29 25 95 58 197 101z" />
    <glyph glyph-name="t" unicode="t" horiz-adv-x="713" 
d="M266 130c11 7 -11 7 0 0zM339 209c11 7 -11 7 0 0zM57 265c0 7 5 11 14 11c5 0 10 -2 14 -6c3 -3 37 -7 101 -12c45 -3 71 -5 79 -5c14 0 24 2 30 6c7 4 16 6 26 6c18 0 27 -4 27 -11c0 -8 15 -12 122 -20c50 -5 79 -10 88 -15c17 -7 36 -11 58 -13c26 -3 39 -7 39 -10
c0 -7 -9 -10 -26 -10c-11 0 -40 3 -87 10l-81 12l-24 -12c-13 -7 -31 -11 -54 -11h-14h-18c-19 0 -30 -1 -32 -3c-4 -5 -31 -63 -80 -174c-51 -113 -78 -169 -83 -169c-9 0 -14 9 -14 28c0 15 1 27 2 38c4 33 9 50 14 50c6 0 11 3 14 10s18 46 45 117s40 108 40 111
s-8 4 -25 4c-25 1 -54 4 -87 10s-53 12 -60 18c-18 16 -27 29 -28 40z" />
    <glyph glyph-name="u" unicode="u" horiz-adv-x="575" 
d="M330 35l86 138c57 93 89 139 94 139s8 -1 8 -3c0 -1 -5 -11 -14 -28c-9 -15 -13 -33 -13 -54c0 -14 2 -28 6 -43c0 -1 1 -4 1 -5c0 -11 -25 -62 -76 -153c-61 -111 -92 -166 -92 -167c-8 -17 -14 -25 -17 -24c-45 21 -68 34 -68 37l5 14c5 20 13 42 12 42
c-2 0 -25 -16 -70 -47l-68 -48l-32 23c-9 7 -23 16 -30 20l-4 3c0 3 11 31 33 85c17 39 29 63 35 72c5 9 15 17 30 25c20 10 34 15 41 15c8 0 12 -6 12 -19c0 -17 -6 -38 -18 -64c-11 -27 -17 -42 -17 -45c0 -5 26 9 79 40z" />
    <glyph glyph-name="v" unicode="v" horiz-adv-x="640" 
d="M225 -45c-2 4 -6 6 -13 6c-8 0 -9 -3 -2 -9l9 -4c5 0 9 4 6 7zM525 420c0 5 7 13 20 23s23 15 29 15c11 0 12 0 -4 -31c-10 -20 -18 -30 -23 -30c-4 0 -27 -24 -69 -72c-43 -49 -70 -82 -82 -101c-11 -17 -18 -36 -23 -57c-5 -22 -29 -68 -72 -139
c-93 -152 -141 -230 -142 -234c-1 -2 -2 -3 -3 -3c-7 0 -15 15 -25 44c-6 17 -18 70 -37 158c-17 83 -29 125 -35 125c-5 0 -1 8 12 23c14 15 23 26 27 35c5 7 11 9 19 6c11 -4 14 -15 26 -78c5 -33 12 -69 21 -106l6 -34l14 18c5 7 36 51 92 133c51 75 86 119 103 130
c11 7 39 37 82 88s64 80 64 87z" />
    <glyph glyph-name="w" unicode="w" horiz-adv-x="696" 
d="M327 124c11 7 -11 7 0 0zM299 127c0 12 -12 11 -12 4c0 -5 2 -9 7 -10c3 1 4 3 5 6zM553 241c-1 -4 63 156 63 150c3 0 8 -7 14 -21c6 -15 9 -26 9 -33c0 -23 -14 -43 -27 -43c-12 0 -18 -9 -37 -53c-19 -47 -59 -127 -118 -242s-91 -172 -96 -172s-7 5 -5 15
c1 5 2 8 2 9c0 5 -6 7 -19 7c-14 0 -24 3 -29 8c-4 4 -8 21 -13 51s-9 59 -12 87c-4 27 -7 41 -8 41s-19 -36 -53 -107c-20 -42 -33 -69 -40 -82c-7 -12 -13 -18 -17 -18c-2 0 -4 1 -6 3c-7 7 -15 11 -23 11c-26 0 -39 6 -39 18c0 8 -1 12 -4 12s-10 5 -21 14l-17 13l21 126
c11 62 17 103 17 124c0 12 -4 16 -4 21c0 13 5 31 16 54c11 22 20 33 28 34h3l2 1c8 0 10 -5 19 -61c2 -11 3 -24 3 -38c0 -8 -1 -19 -2 -34c-8 -61 -12 -118 -12 -172l2 -16l117 257c0 1 1 1 2 1c5 0 16 -6 33 -19c16 -13 25 -22 28 -29c4 -14 7 -32 9 -53l4 -39l-63 2
c-11 0 -30 1 -37 1c-28 0 -31 -3 8 -6c19 -2 39 -4 59 -5s30 -2 31 -3c5 -3 8 -18 10 -46c3 -30 6 -45 10 -45c5 0 29 43 71 129l67 133l24 4c17 3 27 6 30 11z" />
    <glyph glyph-name="x" unicode="x" horiz-adv-x="530" 
d="M140 199c14 6 24 9 31 9s18 -3 33 -9c21 -8 26 -12 29 -31c2 -11 14 -30 35 -58c21 -29 35 -43 40 -43l1 1c52 61 78 99 78 113c0 16 5 24 16 24c7 0 19 -4 35 -12l34 -17l-32 -34c-23 -23 -44 -49 -64 -80l-32 -47l22 -28c15 -19 30 -33 43 -42c25 -20 25 -43 30 -80
l4 -26l-30 13c-20 8 -42 27 -67 58c-22 27 -36 40 -42 40h-1c-4 -3 -12 -20 -25 -51l-19 -47l-39 -13c-63 -20 -88 -34 -120 -66c-21 -21 -34 -31 -40 -31c-1 0 -2 1 -2 2c0 3 3 9 9 18c1 2 18 23 49 62s62 78 91 115c29 38 45 59 48 63c1 3 2 5 2 6c0 9 -21 38 -64 89
c-46 55 -70 84 -71 88c-2 2 8 10 18 14z" />
    <glyph glyph-name="y" unicode="y" horiz-adv-x="588" 
d="M309 205c32 20 40 21 40 -4c0 -4 -1 -15 -2 -34c-1 -9 -1 -20 -1 -33c0 -19 2 -28 7 -28c3 0 6 2 10 6c5 5 4 9 -1 12c-1 1 -2 2 -2 4c0 5 19 23 57 53c13 11 24 17 31 19s20 3 41 3c29 0 42 -2 41 -5s-51 -64 -149 -183l-148 -177l-46 -23c-39 -19 -54 -30 -83 -66
c-23 -27 -37 -41 -43 -41c-3 0 -4 2 -3 7c0 4 47 63 141 178c95 117 144 176 145 179c3 5 1 8 -6 7l-3 -1h-4c-9 0 -18 6 -29 19c-17 19 -20 26 -20 57c0 17 1 28 4 33c2 4 10 10 23 18z" />
    <glyph glyph-name="z" unicode="z" horiz-adv-x="664" 
d="M203 -94c11 7 -11 7 0 0zM152 -84c0 1 39 52 118 151s118 151 118 155c0 5 -7 6 -22 3c-21 -3 -49 -6 -86 -8c-21 -1 -34 -2 -38 -2c-32 0 -36 6 -36 31c0 19 -15 24 -78 24c-27 0 -46 4 -55 12l-15 13l33 -3c27 -3 118 -5 275 -8c160 -3 240 -6 240 -9s-11 -5 -33 -5
c-35 0 -60 -5 -75 -16s-43 -45 -85 -102c-93 -126 -140 -191 -140 -195c0 -1 1 -2 4 -2c39 7 82 15 129 26l119 26l28 -15c19 -9 29 -16 29 -20c0 -5 -34 -7 -51 -26c-5 -6 -17 -12 -37 -18c-21 -6 -67 -17 -139 -34c-101 -23 -167 -38 -196 -46s-33 -9 -44 2
c-5 5 -7 8 -7 11c0 5 4 11 12 20c10 12 25 20 44 24c13 3 19 5 19 6s-5 1 -15 1c-11 1 -16 2 -16 4z" />
    <glyph glyph-name="nbsp" unicode="&#xa0;" 
 />
  </font>
</defs>
</svg>
